# xmcd
#
# Track frame offsets:
# 150
# 9435
# 21197
# 32400
# 41235
# 52820
# 64595
# 76230
# 86545
# 97265
# 110910
# 125954
# 137370
# 147315
# 159765
# 172195
# 184430
# 195990
# 210360
# 220190
# 231402
# 241515
# 253970
# 265795
# 280260
# 290385
# 301202
#
# Disc length: 4188 seconds
#
# Revision: 0
# Processed by: cddbd v1.4PL0 Copyright (c) Steve Scherf et al.
# Submitted via: Axialis_AX_CDPlayer 2.6
#
DISCID=80105a1b
DTITLE=Various Artist - Midnite Blues Party: Clasic Blues/Soul/Rockers and R&B from
DTITLE=\nthe 1950s and 1960s
DYEAR=1900
DGENRE=
TTITLE0=Blue Bull - I'm A Loser
TTITLE1=Nite Riders - I've Been Thinkin' Pt. 1
TTITLE2=Birmingham Junior - You're Too Bad
TTITLE3=Bobby Long - Don't Leave Me
TTITLE4=Randy Hobbs - Slowly But Surely
TTITLE5=Little Grier - But You
TTITLE6=Bob Reed - I'm Leaving You
TTITLE7=Junior Gordon - Call the Doctor
TTITLE8=Al Garris - That's All
TTITLE9=Don Hollinger - I Had  A Nightmare
TTITLE10=Sonny Harper - Lonely Stranger
TTITLE11=Little Daddy Walton - Spend My Money
TTITLE12=Jim Sweeney - The Buzzard and The Owl
TTITLE13=Clarence Nelson - You Make Me Feel So Good
TTITLE14=Baby Huey - Messin' With the Kid
TTITLE15=Jay Lewis - Darling Let Me Know
TTITLE16=Luther Thomas - Who Slipped Out (When I Walked In)
TTITLE17=Rollie McGill - People Are Talking Pt. 1
TTITLE18=Dorothy Berry - You're Driving Me Crazy
TTITLE19=Percy Welsh - Throw This Poor Dog a Bone
TTITLE20=Buddy Lamp - Have Mercy Baby
TTITLE21=Thomas East - You're What's Happening
TTITLE22=Jesse Gee - Don't Mess With My Money
TTITLE23=Good Time Charlie - Whoop it On Me
TTITLE24=Willie Jones - Where's My Money?
TTITLE25=Little Joe Hinton - Let's Start a Romance
TTITLE26=Roy Lee Johnson - Two Doors Down
EXTD=
EXTT0=
EXTT1=
EXTT2=
EXTT3=
EXTT4=
EXTT5=
EXTT6=
EXTT7=
EXTT8=
EXTT9=
EXTT10=
EXTT11=
EXTT12=
EXTT13=
EXTT14=
EXTT15=
EXTT16=
EXTT17=
EXTT18=
EXTT19=
EXTT20=
EXTT21=
EXTT22=
EXTT23=
EXTT24=
EXTT25=
EXTT26=
PLAYORDER=
